<svg xmlns="http://www.w3.org/2000/svg" xmlns:xlink="http://www.w3.org/1999/xlink" width="500" zoomAndPan="magnify" viewBox="0 0 375 374.999991" height="500" preserveAspectRatio="xMidYMid meet" version="1.0"><path fill="#00857c" d="M 246.878906 97.324219 C 235.695312 111.4375 215.214844 113.8125 201.082031 102.648438 C 186.992188 91.527344 184.640625 71.03125 195.78125 56.941406 C 206.949219 42.835938 227.425781 40.457031 241.515625 51.601562 C 255.648438 62.761719 258.027344 83.242188 246.878906 97.324219 Z M 246.878906 97.324219 " fill-opacity="1" fill-rule="evenodd"/><path fill="#00857c" d="M 131.277344 117.097656 C 127.429688 117.097656 123.757812 118.660156 121.085938 121.445312 L 90.890625 152.84375 C 76.890625 166.433594 98.25 186.945312 111.277344 172.414062 L 137.253906 145.386719 L 162.144531 145.453125 L 133.832031 195.988281 C 129.277344 204.140625 132.453125 214.285156 140.648438 218.773438 C 162.6875 230.777344 180.964844 237.347656 202.6875 247.328125 L 221.304688 313.554688 C 227.300781 334.824219 259.222656 325.832031 253.222656 304.542969 L 232.496094 230.984375 C 231.179688 226.296875 227.898438 222.445312 223.480469 220.40625 L 191.570312 205.753906 L 210.84375 166.023438 L 227.628906 185.503906 C 231.613281 190.148438 238.136719 191.667969 243.800781 189.3125 L 286.273438 171.574219 C 305.050781 164.914062 293.339844 136.832031 275.398438 145.503906 L 242.355469 159.296875 L 216.53125 129.210938 C 215.035156 127.488281 213.132812 126.179688 211.03125 125.335938 L 193.242188 118.230469 C 191.589844 117.574219 189.820312 117.230469 188.039062 117.230469 Z M 131.277344 117.097656 " fill-opacity="1" fill-rule="nonzero"/><path fill="#00857c" d="M 142.980469 230.035156 L 135.601562 245.253906 L 84.773438 259.480469 C 62.667969 264.957031 71.953125 298.164062 93.667969 291.367188 L 151.699219 275.171875 C 156.300781 273.902344 160.101562 270.714844 162.1875 266.429688 L 173.109375 243.898438 Z M 142.980469 230.035156 " fill-opacity="1" fill-rule="nonzero"/></svg>