<svg xmlns="http://www.w3.org/2000/svg" xmlns:xlink="http://www.w3.org/1999/xlink" width="500" zoomAndPan="magnify" viewBox="0 0 375 374.999991" height="500" preserveAspectRatio="xMidYMid meet" version="1.0"><defs><clipPath id="4e78cc45a6"><path d="M 43 83.609375 L 332 83.609375 L 332 291.359375 L 43 291.359375 Z M 43 83.609375 " clip-rule="nonzero"/></clipPath></defs><path fill="#00857c" d="M 208.5 243.277344 C 209.390625 244.003906 210.40625 244.351562 211.554688 244.316406 C 212.300781 244.328125 213.003906 244.167969 213.675781 243.839844 C 214.34375 243.511719 214.902344 243.050781 215.351562 242.457031 L 246.628906 203.136719 C 246.972656 202.703125 247.238281 202.222656 247.417969 201.699219 C 247.601562 201.175781 247.691406 200.636719 247.691406 200.082031 C 247.691406 199.527344 247.601562 198.988281 247.417969 198.464844 C 247.238281 197.941406 246.972656 197.464844 246.628906 197.03125 L 215.351562 157.632812 C 214.890625 157.054688 214.328125 156.601562 213.664062 156.273438 C 213 155.949219 212.292969 155.78125 211.554688 155.773438 C 210.398438 155.769531 209.382812 156.140625 208.5 156.890625 C 208.242188 157.082031 208.007812 157.300781 207.792969 157.542969 C 207.578125 157.78125 207.390625 158.042969 207.230469 158.320312 C 207.066406 158.601562 206.9375 158.894531 206.832031 159.199219 C 206.730469 159.507812 206.660156 159.820312 206.625 160.140625 C 206.585938 160.460938 206.578125 160.78125 206.605469 161.101562 C 206.632812 161.425781 206.691406 161.738281 206.78125 162.050781 C 206.875 162.359375 206.996094 162.65625 207.144531 162.941406 C 207.296875 163.226562 207.476562 163.492188 207.679688 163.742188 L 236.5 200.082031 L 207.679688 236.351562 C 207.480469 236.605469 207.304688 236.875 207.15625 237.164062 C 207.007812 237.453125 206.890625 237.75 206.804688 238.0625 C 206.714844 238.375 206.65625 238.691406 206.632812 239.015625 C 206.605469 239.339844 206.613281 239.660156 206.648438 239.984375 C 206.6875 240.304688 206.757812 240.621094 206.859375 240.929688 C 206.957031 241.238281 207.085938 241.53125 207.246094 241.8125 C 207.40625 242.097656 207.589844 242.359375 207.800781 242.605469 C 208.011719 242.851562 208.246094 243.074219 208.5 243.277344 Z M 208.5 243.277344 " fill-opacity="1" fill-rule="nonzero"/><g clip-path="url(#4e78cc45a6)"><path fill="#00857c" d="M 326.761719 108.484375 L 278.128906 108.484375 L 278.128906 88.527344 C 278.136719 88.203125 278.109375 87.878906 278.050781 87.5625 C 277.988281 87.242188 277.898438 86.933594 277.777344 86.632812 C 277.65625 86.332031 277.503906 86.046875 277.324219 85.777344 C 277.148438 85.507812 276.941406 85.257812 276.714844 85.027344 C 276.484375 84.796875 276.234375 84.59375 275.964844 84.414062 C 275.695312 84.234375 275.410156 84.085938 275.109375 83.964844 C 274.808594 83.84375 274.5 83.75 274.179688 83.691406 C 273.859375 83.632812 273.539062 83.605469 273.214844 83.609375 L 48.3125 83.609375 C 47.988281 83.605469 47.667969 83.632812 47.351562 83.691406 C 47.03125 83.75 46.722656 83.84375 46.421875 83.964844 C 46.121094 84.085938 45.835938 84.234375 45.566406 84.414062 C 45.296875 84.59375 45.046875 84.796875 44.816406 85.027344 C 44.585938 85.257812 44.382812 85.507812 44.203125 85.777344 C 44.023438 86.046875 43.875 86.332031 43.753906 86.632812 C 43.632812 86.933594 43.539062 87.242188 43.480469 87.5625 C 43.421875 87.878906 43.394531 88.203125 43.398438 88.527344 L 43.398438 261.820312 C 43.394531 262.144531 43.421875 262.464844 43.480469 262.78125 C 43.539062 263.101562 43.632812 263.410156 43.753906 263.710938 C 43.875 264.011719 44.023438 264.296875 44.203125 264.566406 C 44.382812 264.835938 44.585938 265.085938 44.816406 265.316406 C 45.046875 265.546875 45.296875 265.75 45.566406 265.929688 C 45.835938 266.109375 46.121094 266.257812 46.421875 266.378906 C 46.722656 266.503906 47.03125 266.59375 47.351562 266.652344 C 47.667969 266.710938 47.988281 266.738281 48.3125 266.734375 L 96.945312 266.734375 L 96.945312 286.765625 C 96.945312 287.085938 96.972656 287.398438 97.035156 287.710938 C 97.097656 288.023438 97.191406 288.324219 97.3125 288.617188 C 97.433594 288.914062 97.582031 289.191406 97.757812 289.457031 C 97.9375 289.71875 98.136719 289.964844 98.359375 290.191406 C 98.585938 290.414062 98.832031 290.613281 99.09375 290.792969 C 99.359375 290.96875 99.636719 291.117188 99.929688 291.238281 C 100.226562 291.359375 100.527344 291.453125 100.839844 291.515625 C 101.152344 291.578125 101.464844 291.605469 101.785156 291.605469 L 326.761719 291.605469 C 327.078125 291.605469 327.394531 291.578125 327.710938 291.515625 C 328.023438 291.453125 328.328125 291.363281 328.625 291.242188 C 328.917969 291.121094 329.199219 290.96875 329.46875 290.792969 C 329.734375 290.617188 329.980469 290.417969 330.210938 290.195312 C 330.4375 289.96875 330.640625 289.726562 330.820312 289.460938 C 331 289.199219 331.15625 288.917969 331.28125 288.625 C 331.40625 288.332031 331.5 288.027344 331.566406 287.714844 C 331.632812 287.402344 331.671875 287.085938 331.675781 286.765625 L 331.675781 113.398438 C 331.671875 113.078125 331.636719 112.757812 331.570312 112.445312 C 331.503906 112.128906 331.40625 111.824219 331.28125 111.527344 C 331.15625 111.234375 331.003906 110.953125 330.824219 110.683594 C 330.644531 110.417969 330.441406 110.171875 330.214844 109.945312 C 329.988281 109.71875 329.738281 109.515625 329.472656 109.335938 C 329.207031 109.15625 328.925781 109.003906 328.628906 108.878906 C 328.332031 108.753906 328.027344 108.65625 327.714844 108.589844 C 327.398438 108.523438 327.082031 108.488281 326.761719 108.484375 Z M 268.375 134.398438 L 99.101562 134.398438 C 98.78125 134.398438 98.460938 134.429688 98.144531 134.492188 C 97.828125 134.558594 97.519531 134.648438 97.222656 134.773438 C 96.925781 134.898438 96.640625 135.046875 96.371094 135.226562 C 96.105469 135.40625 95.855469 135.609375 95.628906 135.839844 C 95.398438 136.066406 95.195312 136.316406 95.015625 136.582031 C 94.835938 136.851562 94.6875 137.136719 94.5625 137.433594 C 94.4375 137.730469 94.34375 138.039062 94.28125 138.355469 C 94.21875 138.671875 94.1875 138.992188 94.1875 139.316406 C 94.1875 139.636719 94.21875 139.957031 94.28125 140.273438 C 94.34375 140.589844 94.4375 140.898438 94.5625 141.195312 C 94.6875 141.492188 94.835938 141.777344 95.015625 142.046875 C 95.195312 142.3125 95.398438 142.5625 95.628906 142.789062 C 95.855469 143.019531 96.105469 143.222656 96.371094 143.402344 C 96.640625 143.582031 96.925781 143.730469 97.222656 143.855469 C 97.519531 143.980469 97.828125 144.070312 98.144531 144.136719 C 98.460938 144.199219 98.78125 144.230469 99.101562 144.230469 L 268.375 144.230469 L 268.375 256.902344 L 53.230469 256.902344 L 53.230469 93.441406 L 268.375 93.441406 Z M 278.128906 261.820312 L 278.128906 169.101562 L 321.84375 169.101562 L 321.84375 281.851562 L 106.699219 281.851562 L 106.699219 266.957031 L 273.214844 266.957031 C 273.550781 266.964844 273.878906 266.933594 274.207031 266.871094 C 274.535156 266.808594 274.855469 266.714844 275.164062 266.585938 C 275.472656 266.457031 275.761719 266.296875 276.039062 266.109375 C 276.3125 265.921875 276.566406 265.703125 276.796875 265.464844 C 277.027344 265.222656 277.230469 264.960938 277.410156 264.675781 C 277.585938 264.394531 277.730469 264.09375 277.84375 263.78125 C 277.960938 263.46875 278.042969 263.144531 278.089844 262.816406 C 278.136719 262.484375 278.152344 262.152344 278.128906 261.820312 Z M 302.632812 139.316406 C 302.632812 138.996094 302.601562 138.679688 302.539062 138.363281 C 302.476562 138.050781 302.386719 137.746094 302.265625 137.449219 C 302.144531 137.15625 301.996094 136.875 301.820312 136.605469 C 301.644531 136.339844 301.441406 136.09375 301.21875 135.863281 C 300.996094 135.636719 300.75 135.433594 300.484375 135.253906 C 300.222656 135.074219 299.941406 134.921875 299.648438 134.792969 C 299.355469 134.667969 299.050781 134.574219 298.738281 134.507812 C 298.425781 134.441406 298.109375 134.40625 297.792969 134.398438 L 278.128906 134.398438 L 278.128906 118.3125 L 321.84375 118.3125 L 321.84375 159.347656 L 278.128906 159.347656 L 278.128906 144.453125 L 297.792969 144.453125 C 298.121094 144.453125 298.449219 144.421875 298.773438 144.355469 C 299.097656 144.289062 299.410156 144.1875 299.714844 144.058594 C 300.019531 143.925781 300.304688 143.765625 300.578125 143.578125 C 300.847656 143.386719 301.097656 143.171875 301.324219 142.929688 C 301.550781 142.691406 301.75 142.429688 301.921875 142.148438 C 302.097656 141.867188 302.238281 141.570312 302.351562 141.257812 C 302.464844 140.949219 302.542969 140.628906 302.589844 140.300781 C 302.640625 139.972656 302.652344 139.644531 302.632812 139.316406 Z M 302.632812 139.316406 " fill-opacity="1" fill-rule="nonzero"/></g><path fill="#00857c" d="M 231.660156 118.3125 L 247.597656 118.3125 C 247.921875 118.3125 248.238281 118.28125 248.558594 118.21875 C 248.875 118.15625 249.179688 118.0625 249.480469 117.941406 C 249.777344 117.816406 250.058594 117.664062 250.328125 117.484375 C 250.597656 117.304688 250.84375 117.101562 251.074219 116.875 C 251.300781 116.644531 251.503906 116.398438 251.683594 116.128906 C 251.863281 115.859375 252.015625 115.578125 252.140625 115.28125 C 252.261719 114.980469 252.355469 114.675781 252.417969 114.359375 C 252.480469 114.042969 252.511719 113.722656 252.511719 113.398438 C 252.511719 113.074219 252.480469 112.757812 252.417969 112.441406 C 252.355469 112.125 252.261719 111.816406 252.140625 111.519531 C 252.015625 111.21875 251.863281 110.9375 251.683594 110.667969 C 251.503906 110.398438 251.300781 110.152344 251.074219 109.921875 C 250.84375 109.695312 250.597656 109.492188 250.328125 109.3125 C 250.058594 109.132812 249.777344 108.980469 249.480469 108.859375 C 249.179688 108.734375 248.875 108.640625 248.558594 108.578125 C 248.238281 108.515625 247.921875 108.484375 247.597656 108.484375 L 231.660156 108.484375 C 231.339844 108.484375 231.019531 108.515625 230.703125 108.578125 C 230.386719 108.640625 230.078125 108.734375 229.78125 108.859375 C 229.480469 108.980469 229.199219 109.132812 228.929688 109.3125 C 228.660156 109.492188 228.414062 109.695312 228.1875 109.921875 C 227.957031 110.152344 227.753906 110.398438 227.574219 110.667969 C 227.394531 110.9375 227.242188 111.21875 227.121094 111.519531 C 226.996094 111.816406 226.902344 112.125 226.839844 112.441406 C 226.777344 112.757812 226.746094 113.074219 226.746094 113.398438 C 226.746094 113.722656 226.777344 114.042969 226.839844 114.359375 C 226.902344 114.675781 226.996094 114.980469 227.121094 115.28125 C 227.242188 115.578125 227.394531 115.859375 227.574219 116.128906 C 227.753906 116.398438 227.957031 116.644531 228.1875 116.875 C 228.414062 117.101562 228.660156 117.304688 228.929688 117.484375 C 229.199219 117.664062 229.480469 117.816406 229.78125 117.941406 C 230.078125 118.0625 230.386719 118.15625 230.703125 118.21875 C 231.019531 118.28125 231.339844 118.3125 231.660156 118.3125 Z M 231.660156 118.3125 " fill-opacity="1" fill-rule="nonzero"/><path fill="#00857c" d="M 133.957031 118.3125 L 175.882812 118.3125 C 176.207031 118.3125 176.523438 118.28125 176.839844 118.21875 C 177.15625 118.15625 177.464844 118.0625 177.761719 117.941406 C 178.0625 117.816406 178.34375 117.664062 178.613281 117.484375 C 178.882812 117.304688 179.128906 117.101562 179.359375 116.875 C 179.585938 116.644531 179.789062 116.398438 179.96875 116.128906 C 180.148438 115.859375 180.300781 115.578125 180.421875 115.28125 C 180.546875 114.980469 180.640625 114.675781 180.703125 114.359375 C 180.765625 114.042969 180.796875 113.722656 180.796875 113.398438 C 180.796875 113.074219 180.765625 112.757812 180.703125 112.441406 C 180.640625 112.125 180.546875 111.816406 180.421875 111.519531 C 180.300781 111.21875 180.148438 110.9375 179.96875 110.667969 C 179.789062 110.398438 179.585938 110.152344 179.359375 109.921875 C 179.128906 109.695312 178.882812 109.492188 178.613281 109.3125 C 178.34375 109.132812 178.0625 108.980469 177.761719 108.859375 C 177.464844 108.734375 177.15625 108.640625 176.839844 108.578125 C 176.523438 108.515625 176.207031 108.484375 175.882812 108.484375 L 133.957031 108.484375 C 133.632812 108.484375 133.3125 108.515625 132.996094 108.578125 C 132.679688 108.640625 132.371094 108.734375 132.074219 108.859375 C 131.777344 108.980469 131.492188 109.132812 131.226562 109.3125 C 130.957031 109.492188 130.707031 109.695312 130.480469 109.921875 C 130.25 110.152344 130.046875 110.398438 129.867188 110.667969 C 129.6875 110.9375 129.539062 111.21875 129.414062 111.519531 C 129.289062 111.816406 129.199219 112.125 129.132812 112.441406 C 129.070312 112.757812 129.039062 113.074219 129.039062 113.398438 C 129.039062 113.722656 129.070312 114.042969 129.132812 114.359375 C 129.199219 114.675781 129.289062 114.980469 129.414062 115.28125 C 129.539062 115.578125 129.6875 115.859375 129.867188 116.128906 C 130.046875 116.398438 130.25 116.644531 130.480469 116.875 C 130.707031 117.101562 130.957031 117.304688 131.226562 117.484375 C 131.492188 117.664062 131.777344 117.816406 132.074219 117.941406 C 132.371094 118.0625 132.679688 118.15625 132.996094 118.21875 C 133.3125 118.28125 133.632812 118.3125 133.957031 118.3125 Z M 133.957031 118.3125 " fill-opacity="1" fill-rule="nonzero"/><path fill="#00857c" d="M 199.789062 118.3125 L 210.957031 118.3125 C 211.28125 118.3125 211.601562 118.28125 211.917969 118.21875 C 212.234375 118.15625 212.539062 118.0625 212.839844 117.941406 C 213.136719 117.816406 213.421875 117.664062 213.6875 117.484375 C 213.957031 117.304688 214.207031 117.101562 214.433594 116.875 C 214.660156 116.644531 214.867188 116.398438 215.042969 116.128906 C 215.222656 115.859375 215.375 115.578125 215.5 115.28125 C 215.621094 114.980469 215.714844 114.675781 215.777344 114.359375 C 215.839844 114.042969 215.875 113.722656 215.875 113.398438 C 215.875 113.074219 215.839844 112.757812 215.777344 112.441406 C 215.714844 112.125 215.621094 111.816406 215.5 111.519531 C 215.375 111.21875 215.222656 110.9375 215.042969 110.667969 C 214.867188 110.398438 214.660156 110.152344 214.433594 109.921875 C 214.207031 109.695312 213.957031 109.492188 213.6875 109.3125 C 213.421875 109.132812 213.136719 108.980469 212.839844 108.859375 C 212.539062 108.734375 212.234375 108.640625 211.917969 108.578125 C 211.601562 108.515625 211.28125 108.484375 210.957031 108.484375 L 199.789062 108.484375 C 199.464844 108.484375 199.144531 108.515625 198.828125 108.578125 C 198.511719 108.640625 198.203125 108.734375 197.90625 108.859375 C 197.609375 108.980469 197.324219 109.132812 197.058594 109.3125 C 196.789062 109.492188 196.539062 109.695312 196.3125 109.921875 C 196.082031 110.152344 195.878906 110.398438 195.699219 110.667969 C 195.523438 110.9375 195.371094 111.21875 195.246094 111.519531 C 195.125 111.816406 195.03125 112.125 194.96875 112.441406 C 194.902344 112.757812 194.871094 113.074219 194.871094 113.398438 C 194.871094 113.722656 194.902344 114.042969 194.96875 114.359375 C 195.03125 114.675781 195.125 114.980469 195.246094 115.28125 C 195.371094 115.578125 195.523438 115.859375 195.699219 116.128906 C 195.878906 116.398438 196.082031 116.644531 196.3125 116.875 C 196.539062 117.101562 196.789062 117.304688 197.058594 117.484375 C 197.324219 117.664062 197.609375 117.816406 197.90625 117.941406 C 198.203125 118.0625 198.511719 118.15625 198.828125 118.21875 C 199.144531 118.28125 199.464844 118.3125 199.789062 118.3125 Z M 199.789062 118.3125 " fill-opacity="1" fill-rule="nonzero"/><path fill="#00857c" d="M 148.773438 242.457031 C 149.222656 243.050781 149.785156 243.511719 150.453125 243.839844 C 151.121094 244.167969 151.828125 244.328125 152.574219 244.316406 C 153.71875 244.351562 154.738281 244.003906 155.625 243.277344 C 155.882812 243.074219 156.113281 242.851562 156.324219 242.605469 C 156.535156 242.359375 156.722656 242.097656 156.878906 241.8125 C 157.039062 241.53125 157.167969 241.238281 157.269531 240.929688 C 157.371094 240.621094 157.4375 240.304688 157.476562 239.984375 C 157.515625 239.660156 157.519531 239.339844 157.496094 239.015625 C 157.46875 238.691406 157.414062 238.375 157.324219 238.0625 C 157.234375 237.75 157.117188 237.453125 156.96875 237.164062 C 156.820312 236.875 156.648438 236.605469 156.445312 236.351562 L 127.625 200.082031 L 156.445312 163.742188 C 156.652344 163.492188 156.828125 163.226562 156.980469 162.941406 C 157.132812 162.65625 157.253906 162.359375 157.34375 162.050781 C 157.433594 161.738281 157.492188 161.425781 157.519531 161.101562 C 157.546875 160.78125 157.542969 160.460938 157.503906 160.140625 C 157.464844 159.820312 157.394531 159.507812 157.292969 159.199219 C 157.191406 158.894531 157.058594 158.601562 156.898438 158.320312 C 156.738281 158.042969 156.550781 157.78125 156.335938 157.542969 C 156.121094 157.300781 155.882812 157.082031 155.625 156.890625 C 154.746094 156.140625 153.726562 155.769531 152.574219 155.773438 C 151.832031 155.78125 151.128906 155.949219 150.464844 156.273438 C 149.796875 156.601562 149.234375 157.054688 148.773438 157.632812 L 117.871094 197.03125 C 117.523438 197.464844 117.261719 197.941406 117.078125 198.464844 C 116.898438 198.988281 116.804688 199.527344 116.804688 200.082031 C 116.804688 200.636719 116.898438 201.175781 117.078125 201.699219 C 117.261719 202.222656 117.523438 202.703125 117.871094 203.136719 Z M 148.773438 242.457031 " fill-opacity="1" fill-rule="nonzero"/></svg>