<svg xmlns="http://www.w3.org/2000/svg" xmlns:xlink="http://www.w3.org/1999/xlink" width="500" zoomAndPan="magnify" viewBox="0 0 375 374.999991" height="500" preserveAspectRatio="xMidYMid meet" version="1.0"><defs><clipPath id="87ffdbf70f"><path d="M 144 51.449219 L 231 51.449219 L 231 115 L 144 115 Z M 144 51.449219 " clip-rule="nonzero"/></clipPath><clipPath id="2a75809a83"><path d="M 34.023438 290 L 340.734375 290 L 340.734375 323.542969 L 34.023438 323.542969 Z M 34.023438 290 " clip-rule="nonzero"/></clipPath></defs><path fill="#00857c" d="M 107.75 289.949219 L 267.242188 289.949219 L 274.289062 195.683594 C 274.34375 194.90625 273.96875 194.375 273.742188 194.128906 C 273.515625 193.882812 273.015625 193.472656 272.234375 193.472656 L 102.757812 193.472656 C 101.976562 193.472656 101.476562 193.882812 101.25 194.128906 C 101.023438 194.375 100.648438 194.90625 100.707031 195.683594 Z M 271.152344 298.375 L 103.839844 298.375 C 101.636719 298.375 99.804688 296.671875 99.640625 294.476562 L 92.304688 196.3125 C 92.085938 193.414062 93.097656 190.53125 95.074219 188.398438 C 97.050781 186.269531 99.851562 185.046875 102.757812 185.046875 L 272.234375 185.046875 C 275.140625 185.046875 277.941406 186.269531 279.917969 188.398438 C 281.898438 190.53125 282.90625 193.414062 282.6875 196.3125 L 275.351562 294.476562 C 275.1875 296.671875 273.355469 298.375 271.152344 298.375 " fill-opacity="1" fill-rule="nonzero"/><path fill="#00857c" d="M 187.496094 192.269531 C 186.222656 192.269531 185.015625 191.691406 184.21875 190.699219 L 167.570312 170.0625 C 166.964844 169.3125 166.636719 168.382812 166.636719 167.417969 L 166.636719 152.644531 C 166.636719 150.316406 168.523438 148.429688 170.847656 148.429688 C 173.175781 148.429688 175.0625 150.316406 175.0625 152.644531 L 175.0625 165.929688 L 187.496094 181.34375 L 199.929688 165.929688 L 199.929688 152.644531 C 199.929688 150.316406 201.816406 148.429688 204.144531 148.429688 C 206.46875 148.429688 208.355469 150.316406 208.355469 152.644531 L 208.355469 167.417969 C 208.355469 168.382812 208.027344 169.3125 207.421875 170.0625 L 190.773438 190.699219 C 189.976562 191.691406 188.769531 192.269531 187.496094 192.269531 " fill-opacity="1" fill-rule="nonzero"/><g clip-path="url(#87ffdbf70f)"><path fill="#00857c" d="M 226.707031 114.390625 C 224.378906 114.390625 222.492188 112.507812 222.492188 110.179688 L 222.492188 94.871094 C 222.492188 75.644531 206.851562 59.941406 187.625 59.875 C 187.582031 59.875 187.542969 59.875 187.5 59.875 C 178.300781 59.875 169.59375 63.503906 162.96875 70.109375 C 156.214844 76.835938 152.496094 85.738281 152.496094 95.175781 L 152.496094 110.179688 C 152.496094 112.507812 150.609375 114.390625 148.285156 114.390625 C 145.957031 114.390625 144.070312 112.507812 144.070312 110.179688 L 144.070312 95.175781 C 144.070312 89.277344 145.242188 83.535156 147.554688 78.109375 C 149.785156 72.875 152.972656 68.175781 157.019531 64.140625 C 165.238281 55.953125 176.058594 51.449219 187.5 51.449219 C 187.550781 51.449219 187.601562 51.449219 187.65625 51.449219 C 199.21875 51.492188 210.085938 56.023438 218.253906 64.21875 C 226.421875 72.414062 230.917969 83.300781 230.917969 94.871094 L 230.917969 110.179688 C 230.917969 112.507812 229.03125 114.390625 226.707031 114.390625 " fill-opacity="1" fill-rule="nonzero"/></g><path fill="#00857c" d="M 162.679688 106.695312 L 162.679688 128.785156 C 162.679688 142.472656 173.8125 153.601562 187.496094 153.601562 C 201.179688 153.601562 212.3125 142.472656 212.3125 128.785156 L 212.3125 104.121094 L 204.3125 95.191406 C 191.632812 104.769531 171.5 106.441406 162.679688 106.695312 Z M 187.496094 162.03125 C 169.167969 162.03125 154.253906 147.117188 154.253906 128.785156 L 154.253906 102.507812 C 154.253906 101.367188 154.714844 100.277344 155.53125 99.484375 C 156.347656 98.691406 157.449219 98.261719 158.589844 98.296875 C 158.894531 98.304688 189.011719 99.023438 201.714844 86.320312 C 202.53125 85.503906 203.65625 85.058594 204.808594 85.089844 C 205.964844 85.121094 207.058594 85.628906 207.832031 86.492188 L 219.664062 99.695312 C 220.355469 100.46875 220.738281 101.46875 220.738281 102.507812 L 220.738281 128.785156 C 220.738281 147.117188 205.824219 162.03125 187.496094 162.03125 " fill-opacity="1" fill-rule="nonzero"/><path fill="#00857c" d="M 154.253906 112.777344 C 150.851562 112.820312 148.097656 115.605469 148.097656 119.019531 C 148.097656 122.433594 150.851562 125.214844 154.253906 125.261719 Z M 158.464844 133.6875 L 154.339844 133.6875 C 146.25 133.6875 139.667969 127.105469 139.667969 119.019531 C 139.667969 110.929688 146.25 104.347656 154.339844 104.347656 L 158.464844 104.347656 C 160.792969 104.347656 162.679688 106.234375 162.679688 108.5625 L 162.679688 129.472656 C 162.679688 131.800781 160.792969 133.6875 158.464844 133.6875 " fill-opacity="1" fill-rule="nonzero"/><path fill="#00857c" d="M 220.738281 112.777344 L 220.738281 125.261719 C 224.140625 125.214844 226.894531 122.433594 226.894531 119.019531 C 226.894531 115.605469 224.140625 112.820312 220.738281 112.777344 Z M 220.652344 133.6875 L 216.527344 133.6875 C 214.199219 133.6875 212.3125 131.800781 212.3125 129.472656 L 212.3125 108.5625 C 212.3125 106.234375 214.199219 104.347656 216.527344 104.347656 L 220.652344 104.347656 C 228.742188 104.347656 235.324219 110.929688 235.324219 119.019531 C 235.324219 127.105469 228.742188 133.6875 220.652344 133.6875 " fill-opacity="1" fill-rule="nonzero"/><path fill="#00857c" d="M 119.117188 193.472656 C 118.191406 193.472656 117.257812 193.167969 116.480469 192.539062 C 114.667969 191.082031 114.378906 188.429688 115.839844 186.617188 C 120.507812 180.820312 126.734375 176.589844 133.851562 174.390625 L 169.75 163.296875 C 171.976562 162.613281 174.332031 163.863281 175.015625 166.089844 C 175.695312 168.3125 174.445312 170.667969 172.222656 171.351562 L 172.082031 171.394531 L 136.339844 182.441406 C 130.832031 184.144531 126.015625 187.414062 122.402344 191.898438 C 121.570312 192.933594 120.351562 193.472656 119.117188 193.472656 " fill-opacity="1" fill-rule="nonzero"/><path fill="#00857c" d="M 255.871094 193.472656 C 254.640625 193.472656 253.421875 192.933594 252.589844 191.898438 C 248.976562 187.414062 244.160156 184.144531 238.652344 182.441406 L 202.769531 171.351562 C 200.546875 170.667969 199.296875 168.3125 199.976562 166.089844 C 200.660156 163.863281 203.015625 162.613281 205.242188 163.296875 L 205.378906 163.339844 L 241.140625 174.390625 C 248.257812 176.589844 254.488281 180.820312 259.152344 186.617188 C 260.609375 188.429688 260.324219 191.082031 258.511719 192.539062 C 257.734375 193.167969 256.800781 193.472656 255.871094 193.472656 " fill-opacity="1" fill-rule="nonzero"/><path fill="#00857c" d="M 166.765625 262.394531 C 165.867188 262.394531 164.960938 262.105469 164.195312 261.515625 L 142.839844 245.046875 C 141.808594 244.25 141.199219 243.015625 141.199219 241.710938 C 141.199219 240.402344 141.808594 239.171875 142.839844 238.375 L 164.195312 221.902344 C 166.035156 220.480469 168.683594 220.824219 170.101562 222.667969 C 171.523438 224.507812 171.183594 227.152344 169.339844 228.574219 L 152.3125 241.710938 L 169.339844 254.84375 C 171.183594 256.265625 171.523438 258.910156 170.101562 260.753906 C 169.273438 261.832031 168.023438 262.394531 166.765625 262.394531 " fill-opacity="1" fill-rule="nonzero"/><path fill="#00857c" d="M 208.226562 262.394531 C 206.964844 262.394531 205.71875 261.832031 204.886719 260.753906 C 203.46875 258.910156 203.808594 256.265625 205.652344 254.84375 L 222.679688 241.710938 L 205.652344 228.574219 C 203.808594 227.152344 203.46875 224.507812 204.886719 222.667969 C 206.308594 220.824219 208.957031 220.480469 210.796875 221.902344 L 232.152344 238.375 C 233.183594 239.171875 233.789062 240.402344 233.789062 241.710938 C 233.789062 243.015625 233.183594 244.25 232.152344 245.046875 L 210.796875 261.515625 C 210.03125 262.105469 209.125 262.394531 208.226562 262.394531 " fill-opacity="1" fill-rule="nonzero"/><path fill="#00857c" d="M 179.722656 274.945312 C 179.363281 274.945312 178.996094 274.898438 178.628906 274.800781 C 176.382812 274.199219 175.046875 271.890625 175.648438 269.640625 L 191.203125 211.597656 C 191.804688 209.351562 194.113281 208.015625 196.363281 208.621094 C 198.609375 209.222656 199.945312 211.53125 199.339844 213.78125 L 183.789062 271.820312 C 183.285156 273.703125 181.582031 274.945312 179.722656 274.945312 " fill-opacity="1" fill-rule="nonzero"/><g clip-path="url(#2a75809a83)"><path fill="#00857c" d="M 42.457031 315.117188 L 332.535156 315.117188 C 332.265625 305.878906 324.671875 298.445312 315.371094 298.445312 L 59.621094 298.445312 C 50.320312 298.445312 42.722656 305.878906 42.457031 315.117188 Z M 336.753906 323.542969 L 38.238281 323.542969 C 35.910156 323.542969 34.023438 321.65625 34.023438 319.332031 L 34.023438 315.621094 C 34.023438 301.503906 45.507812 290.019531 59.621094 290.019531 L 315.371094 290.019531 C 329.484375 290.019531 340.96875 301.503906 340.96875 315.621094 L 340.96875 319.332031 C 340.96875 321.65625 339.082031 323.542969 336.753906 323.542969 " fill-opacity="1" fill-rule="nonzero"/></g></svg>