<svg xmlns="http://www.w3.org/2000/svg" xmlns:xlink="http://www.w3.org/1999/xlink" width="500" zoomAndPan="magnify" viewBox="0 0 375 374.999991" height="500" preserveAspectRatio="xMidYMid meet" version="1.0"><defs><clipPath id="9cad992e95"><path d="M 58.015625 86.5 L 316.765625 86.5 L 316.765625 288.25 L 58.015625 288.25 Z M 58.015625 86.5 " clip-rule="nonzero"/></clipPath></defs><g clip-path="url(#9cad992e95)"><path fill="#00857c" d="M 135.703125 86.503906 C 103.675781 86.503906 81.644531 97.347656 81.644531 97.347656 C 79.84375 98.21875 78.710938 100.039062 78.730469 102.042969 L 78.730469 117.578125 L 73.550781 117.578125 C 65.035156 117.578125 58.015625 124.601562 58.015625 133.117188 L 58.015625 267.777344 C 58.015625 276.292969 65.035156 283.3125 73.550781 283.3125 L 176.003906 283.3125 C 178.855469 286.46875 182.921875 288.492188 187.496094 288.492188 C 192.066406 288.492188 196.132812 286.46875 198.984375 283.3125 L 301.4375 283.3125 C 309.953125 283.3125 316.976562 276.292969 316.976562 267.777344 L 316.976562 133.117188 C 316.976562 124.601562 309.953125 117.578125 301.4375 117.578125 L 296.257812 117.578125 L 296.257812 102.042969 C 296.277344 100.039062 295.144531 98.21875 293.34375 97.347656 C 293.34375 97.347656 271.3125 86.503906 239.285156 86.503906 C 211.953125 86.503906 192.773438 94.070312 187.496094 96.375 C 182.214844 94.070312 163.035156 86.503906 135.703125 86.503906 Z M 135.703125 96.863281 C 162.207031 96.863281 178.613281 103.921875 182.316406 105.601562 L 182.316406 255.152344 C 174.628906 252.078125 159.839844 247.058594 135.703125 247.058594 C 111.566406 247.058594 96.777344 252.078125 89.089844 255.152344 L 89.089844 123.730469 C 89.230469 123.042969 89.230469 122.3125 89.089844 121.625 L 89.089844 105.601562 C 92.792969 103.921875 109.199219 96.863281 135.703125 96.863281 Z M 239.285156 96.863281 C 265.789062 96.863281 282.195312 103.921875 285.898438 105.601562 L 285.898438 121.789062 C 285.757812 122.476562 285.757812 123.203125 285.898438 123.890625 L 285.898438 255.152344 C 278.210938 252.078125 263.421875 247.058594 239.285156 247.058594 C 215.152344 247.058594 200.363281 252.078125 192.671875 255.152344 L 192.671875 105.601562 C 196.375 103.921875 212.785156 96.863281 239.285156 96.863281 Z M 239.285156 122.757812 C 233.5625 122.757812 228.929688 127.390625 228.929688 133.117188 C 228.929688 138.84375 233.5625 143.476562 239.285156 143.476562 C 245.011719 143.476562 249.644531 138.84375 249.644531 133.117188 C 249.644531 127.390625 245.011719 122.757812 239.285156 122.757812 Z M 73.550781 127.9375 L 78.730469 127.9375 L 78.730469 262.597656 C 78.710938 264.398438 79.640625 266.058594 81.136719 267.007812 C 82.65625 267.980469 84.558594 268.082031 86.175781 267.292969 C 86.175781 267.292969 105.78125 257.417969 135.703125 257.417969 C 164.917969 257.417969 184.015625 266.683594 184.90625 267.128906 C 184.964844 267.191406 185.003906 267.230469 185.066406 267.292969 C 185.066406 267.292969 185.226562 267.292969 185.226562 267.292969 C 185.390625 267.351562 185.550781 267.414062 185.714844 267.453125 C 185.816406 267.515625 185.9375 267.574219 186.039062 267.613281 C 186.097656 267.613281 186.140625 267.613281 186.199219 267.613281 C 186.300781 267.675781 186.421875 267.734375 186.523438 267.777344 C 186.582031 267.777344 186.625 267.777344 186.683594 267.777344 C 187.007812 267.816406 187.332031 267.816406 187.65625 267.777344 C 187.71875 267.777344 187.757812 267.777344 187.816406 267.777344 C 188.140625 267.757812 188.464844 267.695312 188.789062 267.613281 C 188.949219 267.574219 189.113281 267.515625 189.273438 267.453125 C 189.4375 267.414062 189.597656 267.351562 189.761719 267.292969 C 189.761719 267.292969 190.207031 267.148438 190.246094 267.128906 C 190.367188 267.027344 190.46875 266.925781 190.570312 266.804688 C 192.753906 265.753906 211.164062 257.417969 239.285156 257.417969 C 269.207031 257.417969 288.8125 267.292969 288.8125 267.292969 C 290.429688 268.082031 292.332031 267.980469 293.851562 267.007812 C 295.347656 266.058594 296.277344 264.398438 296.257812 262.597656 L 296.257812 127.9375 L 301.4375 127.9375 C 304.371094 127.9375 306.617188 130.183594 306.617188 133.117188 L 306.617188 267.777344 C 306.617188 270.710938 304.371094 272.957031 301.4375 272.957031 L 73.550781 272.957031 C 70.617188 272.957031 68.371094 270.710938 68.371094 267.777344 L 68.371094 133.117188 C 68.371094 130.183594 70.617188 127.9375 73.550781 127.9375 Z M 222.777344 159.011719 C 219.925781 159.277344 217.820312 161.824219 218.085938 164.679688 C 218.347656 167.53125 220.894531 169.632812 223.75 169.371094 L 228.929688 169.371094 L 228.929688 221.164062 L 249.644531 221.164062 L 249.644531 164.191406 C 249.644531 161.339844 247.316406 159.011719 244.464844 159.011719 L 223.75 159.011719 C 223.585938 159.011719 223.425781 159.011719 223.261719 159.011719 C 223.101562 159.011719 222.941406 159.011719 222.777344 159.011719 Z M 222.777344 159.011719 " fill-opacity="1" fill-rule="nonzero"/></g></svg>